HIERARCHY
ROOT Joint1
{
	OFFSET 0.000000 0.000000 0.000000
	CHANNELS 6 Xposition Yposition Zposition Xrotation Yrotation Zrotation
	JOINT Joint2
	{
		OFFSET -0.000000 0.000000 1.456275
		CHANNELS 6 Xposition Yposition Zposition Xrotation Yrotation Zrotation
		JOINT Joint3
		{
			OFFSET -0.000000 0.000002 1.471446
			CHANNELS 6 Xposition Yposition Zposition Xrotation Yrotation Zrotation
			JOINT Joint4
			{
				OFFSET 0.625745 0.000000 0.917755
				CHANNELS 6 Xposition Yposition Zposition Xrotation Yrotation Zrotation
				JOINT Joint5
				{
					OFFSET -0.629534 0.000001 0.940221
					CHANNELS 6 Xposition Yposition Zposition Xrotation Yrotation Zrotation
					JOINT Joint6
					{
						OFFSET -0.000001 0.113772 1.960660
						CHANNELS 6 Xposition Yposition Zposition Xrotation Yrotation Zrotation
						JOINT Joint7
						{
							OFFSET -0.669733 -0.113771 0.388340
							CHANNELS 6 Xposition Yposition Zposition Xrotation Yrotation Zrotation
							End Site
							{
								OFFSET 0.005509 0.005509 0.438980
							}
						}
					}
				}
			}
		}
	}
}
MOTION
Frames: 27
Frame Time: 0.041667
0.000000 0.000000 0.000000 -0.000000 1.019410 -19.473645 -0.000000 0.000000 1.456275 0.000002 -47.190815 0.000002 -0.000000 0.000002 1.471446 -0.000002 -1.133457 -21.526951 0.625745 0.000000 0.917755 0.000006 139.434869 -0.000004 -0.629533 0.000001 0.940221 -0.000003 1.709737 61.025145 -0.000001 0.113772 1.960660 -88.303875 121.848280 -0.000002 -0.669733 -0.113771 0.388339 -0.680616 3.565885 133.581466 
0.000000 0.000000 0.000000 -0.000000 1.019410 -18.855147 -0.000000 -0.000000 1.456275 0.000000 -47.120611 -0.000001 -0.000000 0.000002 1.471446 -0.000001 -1.133461 -20.844117 0.625744 0.000000 0.917755 0.000010 139.294591 -0.000004 -0.629534 0.000001 0.940221 -0.000004 1.709737 59.086143 -0.000001 0.113773 1.960660 -88.303882 120.835950 0.000006 -0.669733 -0.113771 0.388340 -0.681395 3.565909 133.625397 
0.000000 0.000000 0.000000 -0.000000 1.019410 -18.205164 -0.000000 0.000000 1.456275 0.000000 -47.046831 -0.000003 -0.000000 0.000002 1.471446 0.000001 -1.133465 -20.126527 0.625744 0.000000 0.917755 0.000003 139.147168 -0.000003 -0.629534 0.000001 0.940221 -0.000004 1.709737 57.048438 -0.000000 0.113772 1.960660 -88.303875 119.772066 -0.000005 -0.669733 -0.113771 0.388341 -0.682213 3.565927 133.671529 
0.000000 0.000000 0.000000 -0.000000 1.019410 -17.539603 -0.000000 0.000000 1.456275 -0.000001 -46.971279 0.000000 -0.000000 0.000002 1.471446 0.000001 -1.133469 -19.391734 0.625744 0.000000 0.917755 0.000001 138.996207 -0.000002 -0.629533 0.000001 0.940221 0.000004 1.709735 54.961877 -0.000001 0.113772 1.960660 -88.303882 118.682719 0.000001 -0.669733 -0.113771 0.388340 -0.683053 3.565946 133.718780 
0.000000 0.000000 0.000000 -0.000000 1.019410 -16.874281 -0.000000 0.000000 1.456275 -0.000001 -46.895754 -0.000000 -0.000000 0.000002 1.471446 -0.000000 -1.133464 -18.657212 0.625744 0.000000 0.917755 0.000003 138.845301 0.000001 -0.629533 0.000001 0.940221 -0.000001 1.709736 52.876080 -0.000001 0.113772 1.960661 -88.303882 117.593741 0.000003 -0.669733 -0.113771 0.388340 -0.683892 3.565966 133.766017 
0.000000 0.000000 0.000000 -0.000000 1.019410 -16.224701 -0.000000 -0.000000 1.456275 -0.000002 -46.822023 0.000004 -0.000000 0.000002 1.471446 0.000001 -1.133463 -17.940062 0.625744 0.000000 0.917754 0.000000 138.697960 -0.000001 -0.629534 0.000001 0.940221 0.000001 1.709737 50.839642 -0.000001 0.113772 1.960660 -88.303868 116.530540 -0.000002 -0.669733 -0.113771 0.388340 -0.684710 3.565984 133.812108 
0.000000 0.000000 0.000000 -0.000000 1.019410 -15.606284 -0.000000 -0.000000 1.456275 -0.000000 -46.751825 0.000000 -0.000000 0.000002 1.471446 0.000001 -1.133460 -17.257316 0.625744 0.000000 0.917755 0.000002 138.557709 -0.000001 -0.629534 0.000001 0.940221 -0.000001 1.709737 48.900886 -0.000001 0.113772 1.960660 -88.303875 115.518361 -0.000006 -0.669733 -0.113771 0.388340 -0.685491 3.565994 133.856026 
0.000000 0.000000 0.000000 -0.000000 1.019410 -15.034454 -0.000000 0.000000 1.456275 0.000001 -46.686918 0.000001 -0.000000 0.000002 1.471446 0.000001 -1.133461 -16.626004 0.625744 0.000000 0.917755 0.000005 138.428018 0.000001 -0.629534 0.000001 0.940221 0.000001 1.709737 47.108166 -0.000001 0.113772 1.960660 -88.303875 114.582393 0.000001 -0.669733 -0.113771 0.388340 -0.686210 3.566013 133.896624 
0.000000 0.000000 0.000000 -0.000000 1.019410 -14.517543 -0.000000 -0.000000 1.456275 -0.000000 -46.628233 -0.000001 -0.000000 0.000002 1.471446 -0.000000 -1.133458 -16.055330 0.625744 0.000000 0.917755 0.000009 138.310757 -0.000001 -0.629534 0.000001 0.940221 0.000002 1.709737 45.487656 -0.000001 0.113773 1.960660 -88.303875 113.736337 0.000002 -0.669733 -0.113771 0.388340 -0.686864 3.566021 133.933316 
0.000000 0.000000 0.000000 -0.000000 1.019410 -14.035607 -0.000000 0.000000 1.456275 -0.000001 -46.573533 0.000001 -0.000000 0.000002 1.471446 0.000001 -1.133464 -15.523261 0.625744 0.000000 0.917755 0.000001 138.201447 0.000000 -0.629534 0.000001 0.940221 0.000004 1.709736 43.976771 -0.000001 0.113772 1.960660 -88.303875 112.947532 0.000006 -0.669733 -0.113771 0.388341 -0.687471 3.566033 133.967522 
0.000000 0.000000 0.000000 -0.000000 1.019410 -13.561610 -0.000000 0.000000 1.456275 0.000001 -46.519732 -0.000000 -0.000000 0.000002 1.471446 0.000001 -1.133463 -14.999961 0.625745 0.000000 0.917755 0.000005 138.093939 0.000001 -0.629534 0.000001 0.940221 0.000001 1.709736 42.490781 -0.000001 0.113772 1.960660 -88.303882 112.171712 0.000000 -0.669733 -0.113771 0.388339 -0.688069 3.566044 134.001208 
0.000000 0.000000 0.000000 -0.000000 1.019410 -13.068516 -0.000000 0.000000 1.456275 0.000001 -46.463759 0.000000 -0.000000 0.000002 1.471446 0.000001 -1.133461 -14.455576 0.625744 0.000000 0.917755 0.000003 137.982088 -0.000002 -0.629533 0.000001 0.940221 -0.000003 1.709736 40.944928 -0.000001 0.113772 1.960660 -88.303875 111.364629 -0.000001 -0.669733 -0.113771 0.388340 -0.688690 3.566055 134.036192 
0.000000 0.000000 0.000000 -0.000000 1.019410 -12.529301 -0.000000 0.000000 1.456275 -0.000001 -46.402553 -0.000000 -0.000000 0.000002 1.471446 0.000000 -1.133463 -13.860272 0.625745 0.000000 0.917755 0.000005 137.859801 -0.000002 -0.629534 0.000001 0.940221 0.000002 1.709736 39.254470 -0.000001 0.113772 1.960660 -88.303875 110.482060 0.000007 -0.669733 -0.113771 0.388339 -0.689371 3.566067 134.074482 
0.000000 0.000000 0.000000 -0.000000 1.019410 -11.927141 -0.000000 0.000000 1.456275 0.000000 -46.334193 0.000001 -0.000000 0.000002 1.471446 0.000001 -1.133461 -13.195480 0.625745 0.000000 0.917755 0.000004 137.723210 -0.000002 -0.629534 0.000001 0.940221 -0.000002 1.709736 37.366674 -0.000001 0.113772 1.960660 -88.303875 109.496477 0.000014 -0.669733 -0.113771 0.388340 -0.690129 3.566079 134.117212 
0.000000 0.000000 0.000000 -0.000000 1.019410 -11.286065 -0.000000 0.000000 1.456275 -0.000000 -46.261428 0.000000 -0.000000 0.000002 1.471446 0.000001 -1.133463 -12.487721 0.625744 0.000000 0.917755 0.000005 137.577796 -0.000001 -0.629533 0.000001 0.940221 -0.000002 1.709737 35.356891 -0.000001 0.113772 1.960661 -88.303875 108.447182 0.000006 -0.669733 -0.113771 0.388340 -0.690938 3.566088 134.162756 
0.000000 0.000000 0.000000 -0.000000 1.019410 -10.640319 -0.000000 0.000000 1.456275 0.000001 -46.188126 -0.000001 -0.000000 0.000002 1.471446 0.000000 -1.133457 -11.774810 0.625744 0.000000 0.917755 0.000004 137.431343 -0.000001 -0.629534 0.000001 0.940221 0.000001 1.709736 33.332467 -0.000001 0.113772 1.960660 -88.303875 107.390252 0.000012 -0.669733 -0.113771 0.388340 -0.691753 3.566102 134.208586 
0.000000 0.000000 0.000000 -0.000000 1.019410 -10.024151 -0.000000 0.000000 1.456275 -0.000000 -46.118182 0.000000 -0.000000 0.000002 1.471446 -0.000000 -1.133461 -11.094542 0.625744 0.000000 0.917755 0.000006 137.291583 0.000003 -0.629534 0.000001 0.940221 0.000000 1.709737 31.400760 -0.000001 0.113772 1.960660 -88.303875 106.381733 0.000011 -0.669733 -0.113771 0.388340 -0.692528 3.566113 134.252327 
0.000000 0.000000 0.000000 -0.000000 1.019410 -9.463268 -0.000000 -0.000000 1.456275 -0.000000 -46.054511 -0.000001 -0.000000 0.000002 1.471446 -0.000000 -1.133462 -10.475320 0.625744 0.000000 0.917755 0.000005 137.164364 -0.000001 -0.629534 0.000001 0.940221 -0.000000 1.709737 29.642369 -0.000001 0.113772 1.960660 -88.303868 105.463701 0.000009 -0.669733 -0.113771 0.388339 -0.693235 3.566121 134.292147 
0.000000 0.000000 0.000000 -0.000000 1.019410 -8.949255 -0.000000 0.000000 1.456275 -0.000000 -45.996164 -0.000000 -0.000000 0.000002 1.471446 0.000000 -1.133459 -9.907842 0.625744 0.000000 0.917755 0.000007 137.047787 0.000001 -0.629533 0.000001 0.940221 -0.000001 1.709736 28.030931 -0.000001 0.113772 1.960660 -88.303875 104.622392 0.000012 -0.669733 -0.113771 0.388341 -0.693884 3.566130 134.328634 
0.000000 0.000000 0.000000 -0.000000 1.019410 -8.465173 -0.000000 0.000000 1.456275 0.000000 -45.941215 0.000000 -0.000000 0.000002 1.471446 0.000000 -1.133463 -9.373402 0.625745 0.000000 0.917755 0.000006 136.937985 0.000001 -0.629534 0.000001 0.940221 -0.000001 1.709736 26.513319 -0.000001 0.113772 1.960661 -88.303868 103.830056 0.000007 -0.669733 -0.113771 0.388340 -0.694493 3.566138 134.363017 
0.000000 0.000000 0.000000 -0.000000 1.019410 -7.994069 -0.000000 -0.000000 1.456275 -0.000000 -45.887741 -0.000000 -0.000000 0.000002 1.471446 0.000001 -1.133461 -8.853299 0.625745 0.000000 0.917755 0.000002 136.831147 0.000001 -0.629534 0.000001 0.940221 0.000001 1.709737 25.036398 -0.000001 0.113772 1.960660 -88.303868 103.058976 0.000006 -0.669733 -0.113771 0.388339 -0.695087 3.566143 134.396444 
0.000000 0.000000 0.000000 -0.000000 1.019410 -7.519003 -0.000000 0.000000 1.456275 -0.000000 -45.833821 0.000002 -0.000000 0.000002 1.471446 0.000000 -1.133458 -8.328815 0.625745 0.000000 0.917755 0.000003 136.723380 -0.000001 -0.629534 0.000001 0.940221 0.000002 1.709737 23.547055 -0.000001 0.113772 1.960660 -88.303868 102.281407 0.000007 -0.669733 -0.113771 0.388340 -0.695686 3.566148 134.430171 
0.000000 0.000000 0.000000 -0.000000 1.019410 -7.027209 -0.000000 0.000000 1.456275 -0.000000 -45.777991 -0.000000 -0.000000 0.000002 1.471446 0.000001 -1.133462 -7.785864 0.625744 0.000000 0.917755 0.000004 136.611829 -0.000000 -0.629534 0.000001 0.940221 -0.000000 1.709737 22.005268 -0.000001 0.113772 1.960661 -88.303868 101.476455 0.000011 -0.669733 -0.113771 0.388340 -0.696307 3.566154 134.465087 
0.000000 0.000000 0.000000 -0.000000 1.019410 -6.522652 -0.000000 0.000000 1.456275 -0.000001 -45.720719 0.000001 -0.000001 0.000002 1.471446 0.000000 -1.133465 -7.228825 0.625744 0.000000 0.917755 0.000004 136.497383 -0.000002 -0.629534 0.000001 0.940220 0.000000 1.709737 20.423473 -0.000001 0.113772 1.960660 -88.303868 100.650617 0.000009 -0.669733 -0.113771 0.388340 -0.696943 3.566160 134.500905 
0.000000 0.000000 0.000000 -0.000000 1.019410 -6.013477 -0.000000 -0.000000 1.456275 -0.000000 -45.662922 -0.000000 -0.000000 0.000002 1.471446 0.000000 -1.133458 -6.666688 0.625745 0.000000 0.917755 0.000006 136.381898 -0.000000 -0.629533 0.000001 0.940221 -0.000002 1.709737 18.827198 -0.000001 0.113772 1.960661 -88.303868 99.817218 0.000013 -0.669733 -0.113771 0.388341 -0.697585 3.566163 134.537064 
0.000000 0.000000 0.000000 -0.000000 1.019410 -5.507828 -0.000000 0.000000 1.456275 0.000000 -45.605521 0.000001 -0.000000 0.000002 1.471446 -0.000000 -1.133461 -6.108444 0.625745 0.000000 0.917755 0.000004 136.267219 -0.000001 -0.629533 0.000001 0.940220 0.000001 1.709737 17.241976 -0.000001 0.113772 1.960660 -88.303862 98.989597 0.000016 -0.669733 -0.113771 0.388340 -0.698223 3.566169 134.572950 
0.000000 0.000000 0.000000 -0.000000 1.019410 -5.013851 -0.000000 0.000000 1.456275 -0.000000 -45.549456 0.000000 -0.000000 0.000002 1.471446 -0.000000 -1.133461 -5.563087 0.625744 0.000000 0.917755 0.000005 136.155177 -0.000001 -0.629534 0.000001 0.940221 -0.000000 1.709736 15.693348 -0.000001 0.113772 1.960661 -88.303862 98.181073 0.000016 -0.669733 -0.113771 0.388340 -0.698846 3.566172 134.608029 
